<?xml version="1.0" standalone="no"?>
<!DOCTYPE svg PUBLIC "-//W3C//DTD SVG 20010904//EN"
 "http://www.w3.org/TR/2001/REC-SVG-20010904/DTD/svg10.dtd">
<svg version="1.0" xmlns="http://www.w3.org/2000/svg"
 width="160.000000pt" height="160.000000pt" viewBox="0 0 160.000000 160.000000"
 preserveAspectRatio="xMidYMid meet">

<g transform="translate(0.000000,160.000000) scale(0.100000,-0.100000)"
fill="#000000" stroke="none">
<path d="M780 1305 c-7 -8 -17 -15 -23 -15 -6 0 -19 -7 -29 -17 -17 -16 -17
-17 13 -35 32 -20 52 -17 31 4 -14 14 -16 28 -3 28 5 0 13 -10 17 -22 4 -15 1
-25 -12 -35 -17 -12 -17 -14 2 -29 19 -15 19 -15 -2 -9 -13 3 -27 -2 -40 -17
-30 -34 -64 -96 -64 -119 0 -23 -23 -25 -44 -3 -20 19 -20 43 -2 63 8 9 24 37
35 64 16 37 17 47 6 47 -7 0 -16 -4 -20 -9 -9 -15 -65 -41 -65 -30 0 25 -21 4
-31 -31 -7 -22 -16 -40 -20 -40 -4 0 -1 -21 7 -47 8 -25 14 -49 14 -53 0 -12
-112 -1 -126 13 -3 3 -13 -1 -21 -9 -11 -10 -25 -13 -46 -8 -29 6 -29 5 -25
-25 4 -25 1 -31 -10 -26 -11 4 -13 -1 -9 -24 4 -17 3 -33 -2 -36 -12 -7 -28
15 -33 45 -2 18 -10 26 -29 28 -24 3 -25 1 -21 -30 2 -18 9 -39 14 -45 7 -9 5
-15 -6 -19 -9 -3 -13 -10 -10 -15 5 -9 -39 -70 -83 -114 -12 -13 -27 -41 -32
-63 -6 -22 -16 -42 -23 -44 -6 -2 -12 -15 -14 -29 -1 -13 -3 -25 -4 -26 -2 -2
-3 -6 -5 -10 -1 -5 -5 -19 -9 -33 -8 -30 19 -170 35 -180 6 -4 11 -22 12 -41
2 -21 7 -33 15 -32 6 2 12 -3 12 -10 0 -7 13 -34 29 -59 22 -35 38 -48 63 -53
18 -4 46 -14 61 -22 38 -19 110 -6 116 22 5 28 21 36 58 29 29 -6 33 -3 53 36
23 44 60 178 60 216 0 18 -4 21 -21 17 -20 -6 -21 -3 -15 23 4 16 11 50 16 76
10 56 16 68 35 68 15 0 35 59 34 100 0 25 0 25 -9 3 -11 -26 -27 -29 -54 -8
-17 13 -17 16 -1 64 9 28 20 53 25 56 5 3 20 -6 33 -19 l24 -24 31 82 c35 91
121 235 196 329 38 47 43 58 23 44 -32 -21 -41 -22 -34 -3 5 12 -41 76 -55 76
-3 0 -11 -7 -18 -15z m-255 -355 c-11 -17 -65 -41 -77 -34 -7 4 2 14 23 24 39
20 63 25 54 10z m65 -39 c0 -11 -3 -22 -7 -24 -5 -3 -8 6 -8 19 0 13 3 24 8
24 4 0 7 -9 7 -19z m-240 -1 c0 -5 -4 -10 -10 -10 -5 0 -10 5 -10 10 0 6 5 10
10 10 6 0 10 -4 10 -10z m30 -91 c0 -8 4 -8 14 0 11 9 15 8 20 -5 10 -27 7
-42 -10 -40 -27 4 -58 56 -34 56 6 0 10 -5 10 -11z m80 -39 c0 -11 -2 -20 -4
-20 -2 0 -6 9 -9 20 -3 11 -1 20 4 20 5 0 9 -9 9 -20z m-88 -54 c14 -20 9 -46
-7 -40 -8 4 -15 1 -15 -5 0 -6 -7 -11 -15 -11 -9 0 -15 -9 -15 -25 0 -18 -5
-25 -20 -25 -11 0 -21 6 -21 13 -5 41 -7 54 -13 75 -6 17 -3 24 16 31 27 10
80 3 90 -13z m-218 -20 c-3 -8 -13 -17 -22 -21 -13 -5 -13 -2 3 15 21 24 26
25 19 6z m393 -51 c-10 -21 -16 -24 -22 -15 -5 9 -4 15 3 18 7 2 12 13 12 25
0 15 3 18 11 10 8 -8 7 -18 -4 -38z m-79 -50 c-7 -15 -20 -25 -32 -25 -19 0
-18 2 8 25 36 31 38 31 24 0z m-75 3 c15 -12 14 -17 -14 -58 -30 -45 -30 -45
-10 -59 29 -18 26 -28 -8 -36 -33 -7 -48 -47 -25 -66 21 -17 17 -27 -16 -44
-27 -14 -33 -14 -60 0 -34 17 -40 48 -12 64 13 8 14 13 4 19 -10 7 -8 14 8 35
11 14 16 28 12 31 -11 6 -46 -31 -56 -58 -5 -14 -9 -16 -20 -6 -12 9 -18 6
-31 -14 -10 -14 -22 -26 -28 -26 -6 0 -7 3 -4 7 4 3 1 13 -5 21 -10 11 -8 18
9 32 23 18 21 32 -3 23 -25 -9 -15 6 14 21 19 11 22 15 10 16 -22 0 -24 20 -3
20 8 0 15 5 15 10 0 6 10 10 21 10 19 0 20 2 8 17 -12 15 -12 16 8 11 12 -3
24 -1 26 6 3 7 13 3 28 -11 l24 -22 24 34 c25 37 54 45 84 23z m122 -8 c3 -5
1 -10 -4 -10 -6 0 -11 5 -11 10 0 6 2 10 4 10 3 0 8 -4 11 -10z m-415 -95 c0
-8 -7 -15 -15 -15 -26 0 -18 20 13 29 1 1 2 -6 2 -14z m386 -7 l19 -21 -30 18
c-41 26 -40 25 -23 25 8 0 23 -10 34 -22z m40 -53 c8 -19 -4 -35 -20 -29 -8 3
-12 14 -9 25 6 22 21 25 29 4z m-336 -166 c0 -11 -4 -17 -10 -14 -5 3 -10 13
-10 21 0 8 5 14 10 14 6 0 10 -9 10 -21z m219 -56 c-2 -28 -39 -68 -68 -76
-46 -11 -49 -3 -11 30 64 54 81 64 79 46z"/>
<path d="M1510 769 c0 -5 5 -7 10 -4 6 3 10 8 10 11 0 2 -4 4 -10 4 -5 0 -10
-5 -10 -11z"/>
<path d="M1368 683 c6 -2 18 -2 25 0 6 3 1 5 -13 5 -14 0 -19 -2 -12 -5z"/>
<path d="M1286 639 c4 -8 0 -9 -15 -4 -12 3 -21 2 -21 -4 0 -20 20 -21 52 -1
l33 20 -28 0 c-18 0 -26 -4 -21 -11z"/>
<path d="M1196 605 c5 -19 2 -25 -10 -25 -9 0 -16 -4 -16 -10 0 -5 -8 -10 -19
-10 -21 0 -48 -27 -37 -37 4 -4 10 -2 14 4 4 7 23 19 42 28 19 8 44 21 55 28
11 6 22 13 24 14 10 6 -24 33 -40 33 -16 0 -18 -5 -13 -25z"/>
<path d="M1080 509 c0 -5 5 -7 10 -4 6 3 10 8 10 11 0 2 -4 4 -10 4 -5 0 -10
-5 -10 -11z"/>
<path d="M1035 500 c-3 -5 3 -10 14 -10 12 0 21 5 21 10 0 6 -6 10 -14 10 -8
0 -18 -4 -21 -10z"/>
<path d="M982 475 c-13 -7 -30 -22 -38 -33 -8 -12 -34 -26 -57 -33 -22 -6 -52
-19 -65 -30 -14 -10 -30 -19 -37 -19 -7 0 -15 -7 -19 -15 -8 -21 22 -18 59 6
17 10 37 22 45 26 8 3 29 17 45 29 17 12 49 30 73 39 23 10 42 21 42 25 0 14
-25 17 -48 5z"/>
<path d="M717 342 c-10 -10 -17 -24 -17 -30 0 -7 -4 -12 -10 -12 -5 0 -10 -4
-10 -10 0 -5 9 -10 20 -10 11 0 20 4 20 9 0 5 10 13 22 17 19 6 20 7 4 16 -13
8 -15 13 -5 24 17 21 -5 17 -24 -4z"/>
<path d="M641 278 c-41 -15 -53 -29 -40 -44 12 -14 33 -9 24 6 -3 4 3 6 13 3
21 -5 44 17 34 34 -5 7 -15 7 -31 1z"/>
<path d="M575 220 c3 -5 10 -10 16 -10 5 0 9 5 9 10 0 6 -7 10 -16 10 -8 0
-12 -4 -9 -10z"/>
<path d="M499 153 c-13 -16 -12 -17 4 -4 9 7 17 15 17 17 0 8 -8 3 -21 -13z"/>
</g>
</svg>
